<?xml version="1.0" encoding="utf-8"?>
<!-- Generator: Adobe Illustrator 27.7.0, SVG Export Plug-In . SVG Version: 6.00 Build 0)  -->
<svg version="1.1" id="Layer_1" xmlns="http://www.w3.org/2000/svg" xmlns:xlink="http://www.w3.org/1999/xlink" x="0px" y="0px"
	 viewBox="0 0 226.2 308.5" style="enable-background:new 0 0 226.2 308.5;" xml:space="preserve">
<style type="text/css">
	.st0{fill:none;stroke:#000000;stroke-width:6;stroke-miterlimit:10;}
	.st1{font-family:'KelsonSans-Bold';}
	.st2{font-size:59.8542px;}
	.st3{stroke:#000000;stroke-width:2;stroke-miterlimit:10;}
</style>
<g>
	<path d="M222.5,143.7l-73.4-20.6c31.1-19.9,40.2-61.2,20.3-92.3S108.2-9.4,77.1,10.5s-40.2,61.2-20.3,92.3
		c5.2,8.2,12.2,15.1,20.3,20.3L3.8,143.7c-2.3,0.6-3.8,2.8-3.8,5.1v118.2c-0.1,2.3,1.3,4.4,3.5,5.1l108,36c1.1,0.4,2.2,0.4,3.3,0
		l108-36c2.2-0.7,3.6-2.8,3.5-5.1V148.9C226.3,146.5,224.7,144.4,222.5,143.7z M56.6,66.6C56.5,35.4,81.8,10,113,10
		c31.2,0,56.6,25.3,56.6,56.5c0,26-17.6,48.6-42.8,54.9c-1.2,0.3-2.3,1.1-3,2.1l-10.7,16.1l-10.7-16.1c-0.7-1.1-1.8-1.8-3-2.1
		C74.2,115.1,56.6,92.5,56.6,66.6z M91.2,129.6l3.8,1.2l13.9,20.8c1.6,2.4,4.8,3,7.1,1.4c0.6-0.4,1-0.8,1.4-1.4l13.9-20.8l3.8-1.2
		l67.3,19.2l-89.2,25.7l-89.2-25.7L91.2,129.6z M10.3,155.7l97.7,27.9v112.4l-97.7-32.5V155.7z M118.2,295.9V183.6l97.7-27.9v108
		L118.2,295.9z"/>
</g>
<g>
	<path class="st0" d="M199.3,217.4c0,0,0,0.1,0,0.1c-0.1,0.1-0.2,0.1-0.2,0.2c-1.9,2.2-3.9,4.5-5.8,6.8c-1.3,1.5-2.6,3.1-3.9,4.6
		c-0.7,0.8-1.5,1.2-2.4,1.1c-0.9,0-1.3-0.6-1.5-1.3c-0.7-2.2-2.8-3.2-5.4-2.8c-2.7,0.4-5.2,2.4-6.4,4.9c-1.7,3.7,0.4,6.9,4.3,6.8
		c0.9,0,1.6,0.2,1.8,1c0.2,0.8,0,1.5-0.7,2.3c-3.3,3.8-6.5,7.6-9.8,11.4c-0.1,0.1-0.1,0.2-0.2,0.3c-0.1,0-0.1,0-0.2,0
		c-0.1-0.1-0.2-0.2-0.3-0.3c-2.1-1.3-4.3-2.7-6.4-4c-1.1-0.7-2.1-1.3-3.2-2c-0.4-0.3-0.9-0.5-1.5-0.5c-1.3,0.1-2.4,0.9-2.8,2.2
		c-0.2,0.5-0.3,1-0.5,1.5c-1.8,3.8-6.7,6-9.9,4.4c-3.3-1.6-3.1-6.1,0.4-9.2c0.8-0.7,1.6-1.2,2.5-1.6c1.3-0.7,2-2.1,1.5-3.1
		c-0.2-0.4-0.6-0.7-0.9-0.9c-3.3-2.1-6.5-4.1-9.8-6.2c-0.1-0.1-0.1-0.1-0.2-0.2c0.1-0.1,0.1-0.2,0.2-0.2c3.4-3.9,6.8-7.7,10.2-11.6
		c0.7-0.8,1.5-1.2,2.4-1.2c0.9,0,1.4,0.5,1.6,1.2c0.5,2.1,3,3.7,6.2,2.9c2.5-0.7,4.4-2.1,5.6-4.3c1.2-2.2,1.1-4.2-0.2-5.7
		c-0.9-1.1-2.3-1.6-4-1.5c-0.6,0-1.1-0.1-1.4-0.5c-0.7-0.7-0.6-1.8,0.3-2.9c1.2-1.4,2.4-2.7,3.6-4.1c2.1-2.4,4.2-4.7,6.2-7.1
		c0.4-0.4,0.4-0.4,0.7-0.2c3.2,2.1,6.4,4.2,9.6,6.3c0.2,0.1,0.4,0.3,0.7,0.4c0.7,0.2,1.4,0.1,2.1-0.4c0.8-0.6,1.1-1.3,1.4-2.1
		c0.9-3.2,4.3-5.8,7.5-5.8c2.5,0,4.4,1.5,4.6,3.6c0.3,2.5-1,4.9-3.5,6.6c-0.5,0.3-1,0.6-1.5,0.9c-1.2,0.7-1.9,1.9-1.5,2.9
		c0.1,0.4,0.5,0.7,0.9,1c2.9,2,5.9,3.9,8.8,5.8C198.7,217,199,217.2,199.3,217.4z"/>
</g>
<text transform="matrix(1 0 0 1 80.7857 90.3875)" class="st1 st2">3D</text>
<g>
	<path d="M44.5,218.9c-0.4,1.8-2.1,2.7-4,2.1c-0.5-0.2-0.9,0.1-0.9,0.7s0.4,1.1,0.9,1.3c3,0.9,5.5-0.5,6-3.4
		c1.9,0.4,3.6,0.1,4.9-0.9c0.4-0.3,0.4-0.9,0-1.4c-0.4-0.5-1-0.7-1.4-0.4c-1.2,0.9-2.7,1-4.4,0.5c-3.4-1-6.1-4.7-6.1-8.1
		c0-0.5-0.4-1.1-0.9-1.2c-0.5-0.2-0.9,0.1-0.9,0.7C37.6,212.8,40.6,217.2,44.5,218.9z"/>
	<path d="M48.6,228.6c0-0.5-0.4-1.1-1-1.3c-4.5-1.4-8,1.1-8,5.6c0,0,0,0.1,0,0.1c-0.4-0.2-0.7-0.3-1.1-0.4c-0.5-0.2-0.9,0.1-0.9,0.7
		c0,0.5,0.4,1.1,0.9,1.3c3.4,1.1,6.1,4.8,6.1,8.2c0,0.5,0.4,1.1,1,1.3c0.5,0.2,1-0.1,1-0.7c0-3.4-2.1-7.1-5-9.2c0-0.2,0-0.5,0-0.7
		c0-3.4,2.8-5.4,6.2-4.3C48.2,229.4,48.6,229.1,48.6,228.6z"/>
	<path class="st3" d="M82.2,230.7c0-2.3-0.9-4.7-2.5-6.8c0.3-0.7,0.4-1.5,0.4-2.4c0-4.1-3-8.4-6.9-10.3c0.3-0.6,0.5-1.4,0.5-2.2
		c0-2.6-1.6-5.3-3.8-6.9c-3.7-4-7.8-6.9-10.8-7.8c-1.7-0.5-3.2-0.1-4.1,1c-0.9-1.6-2.4-2.8-4.1-3.3c-3-0.9-6.9-0.3-10.5,1.6
		c-2.1,0.3-3.6,2-3.6,4.6c0,0.8,0.1,1.6,0.4,2.4c-3.7-0.4-6.4,2.1-6.4,6.1c0,0.8,0.1,1.7,0.4,2.5c-1.5,1.1-2.3,2.9-2.3,5.1
		c0,1.7,0.5,3.4,1.4,5c-0.9,1.1-1.4,2.5-1.4,4.2c0,2.9,1.6,6.1,4,8.4c0,0.4-0.1,0.7-0.1,1.1c0,4,2.5,8.3,6.2,10.8
		c1.6,3.4,4.6,6.1,7.8,7.2c3.6,1.2,6.7,0.1,8.2-2.4c1.5,3.6,4.7,6.7,8.3,7.9c3.3,1.1,6.4,0.4,8.1-2c3.9,0,6.6-2.7,6.6-6.8
		c0-0.4,0-0.8-0.1-1.2c2.7-0.6,4.4-2.9,4.4-6c0-1.7-0.5-3.5-1.5-5.3C81.6,233.9,82.2,232.4,82.2,230.7z M46.6,248.8
		c-2.7-0.9-5.1-3.2-6.3-6c-0.1-0.3-0.3-0.5-0.6-0.7c-3.1-1.9-5.2-5.4-5.2-8.7c0-0.5,0-1,0.1-1.4c0.1-0.4-0.1-0.9-0.5-1.2
		c-2.2-1.7-3.6-4.4-3.6-6.8c0-1.1,0.3-2.1,0.8-2.9c1.4,1.7,3.2,3,5.2,3.7c0.5,0.2,0.9-0.1,0.9-0.7s-0.4-1.1-0.9-1.3
		c-3.3-1-6-4.7-6-8.1c0-1.8,0.8-3.3,2.2-4.1c0.3-0.2,0.4-0.6,0.3-1c-0.3-0.8-0.4-1.7-0.4-2.5c0-3.4,2.7-5.4,6.1-4.4
		c3.4,1,6.1,4.6,6.1,8.1c0,0.5,0.4,1.1,1,1.3c0.5,0.2,1-0.1,1-0.7c0-4.4-3.3-8.9-7.5-10.4c-0.4-0.8-0.6-1.5-0.6-2.3
		c0-1.7,1-2.9,2.5-3.1c0.1,0,0.1,0,0.2,0c0.5,0,0.9,0,1.5,0.1c1.6,0.5,3,1.8,3.7,3.4c0.2,0.5,0.8,0.9,1.3,0.8
		c0.5-0.1,0.7-0.6,0.4-1.2c-0.8-1.9-2.3-3.5-4-4.5c2.4-0.8,4.8-1,6.8-0.4c1.7,0.5,3.1,2.3,3.1,4.1v12.6c-0.9-1-2-1.7-3.1-2.1
		c-0.5-0.2-1,0.1-1,0.7c0,0.5,0.4,1.1,1,1.3c1.7,0.5,3.1,2.4,3.1,4.1v23.5c-1.2-2-2.9-3.7-4.9-4.8c-0.5-0.3-1-0.2-1.2,0.3
		c-0.1,0.5,0.2,1.1,0.7,1.4c3.2,1.9,5.4,5.5,5.4,8.8C53.8,247.9,50.6,250.1,46.6,248.8z M76.3,244.3c-0.4,0.1-0.7,0.4-0.6,0.9
		c0.1,0.5,0.2,1,0.2,1.6c0,3.4-2.3,5.6-5.6,5.4c-0.3,0-0.5,0.1-0.6,0.3c-1.3,2-3.8,2.7-6.6,1.8c-4.1-1.3-7.3-5.7-7.3-9.8
		c0-0.3,0-0.6,0-0.8c0-0.1,0-0.2,0-0.3v-32.3c0-1.8,1.4-2.8,3.2-2.3c0.5,0.2,1-0.1,1-0.7c0-0.5-0.4-1.1-1-1.3
		c-1.2-0.4-2.3-0.3-3.2,0.2v-8.5c0-1.8,1.4-2.8,3.2-2.3c2,0.6,4.4,2.1,6.9,4.4c-1.8-0.1-3.3,0.7-4.2,2.1c-0.2,0.4,0,1.1,0.5,1.4
		c0.5,0.4,1.1,0.3,1.3-0.1c0.7-1.3,2.2-1.8,3.8-1.3c0.5,0.2,1,0.4,1.5,0.7c0.1,0,0.1,0.1,0.2,0.1c1.5,1.1,2.6,2.9,2.6,4.7
		c0,0.8-0.2,1.5-0.6,2c-4.4-1-7.8,1.6-7.8,6c0,0.5,0.4,1.1,1,1.3c0.5,0.2,1-0.1,1-0.7c0-3.5,2.9-5.5,6.4-4.5
		c3.6,1.1,6.5,4.8,6.5,8.4c0,0.8-0.2,1.6-0.5,2.3c-0.2,0.4,0,0.8,0.3,1.2c1.5,1.7,2.3,3.7,2.3,5.7c0,3.6-2.9,5.5-6.5,4.4
		c-0.6-0.2-1,0.1-1,0.7s0.4,1.1,1,1.3c2.1,0.7,4.1,0.5,5.6-0.3c0.6,1.2,0.9,2.4,0.9,3.5C80.2,242.2,78.6,244,76.3,244.3z"/>
	<path d="M71.6,229.6c-2.1-0.6-3.8-2.6-4.2-4.7c4.1,0.7,7.3-1.8,7.3-6.1c0-0.5-0.4-1.1-1-1.3c-0.6-0.2-1,0.1-1,0.7
		c0,3.5-2.9,5.5-6.4,4.4c-1.7-0.5-3.3-1.7-4.5-3.3c-0.4-0.5-1-0.7-1.4-0.4c-0.4,0.3-0.4,0.9,0,1.4c1.4,1.8,3.1,3.2,5,4
		c0.5,3.1,3.1,6.3,6.2,7.2c0.5,0.2,1-0.1,1-0.7S72.1,229.7,71.6,229.6z"/>
	<path d="M68.4,240.2c-0.4-0.1-0.8-0.2-1.1-0.3c0,0,0-0.1,0-0.1c0-4.6-3.7-9.5-8.3-11c-0.5-0.2-1,0.1-1,0.7s0.4,1.1,1,1.3
		c3.5,1.1,6.3,4.8,6.3,8.4c0,0.2,0,0.4,0,0.7c-3,0.3-5.2,2.6-5.2,6c0,0.5,0.4,1.1,1,1.3c0.5,0.2,1-0.1,1-0.7c0-3.5,2.8-5.4,6.4-4.3
		c0.5,0.2,1-0.1,1-0.7S68.9,240.4,68.4,240.2z"/>
</g>
</svg>
