<?xml version="1.0" encoding="utf-8"?>
<!-- Generator: Adobe Illustrator 27.7.0, SVG Export Plug-In . SVG Version: 6.00 Build 0)  -->
<svg version="1.1" id="Layer_2" xmlns="http://www.w3.org/2000/svg" xmlns:xlink="http://www.w3.org/1999/xlink" x="0px" y="0px"
	 viewBox="0 0 312.97 207.94" style="enable-background:new 0 0 312.97 207.94;" xml:space="preserve">
<style type="text/css">
	.st0{fill:#FFDDA0;stroke:#000000;stroke-width:40;stroke-miterlimit:10;}
</style>
<g>
	<path d="M65.23,179.83C29.26,179.83,0,150.57,0,114.6c0-35.97,29.26-65.23,65.23-65.23c7.75,0,15.33,1.35,22.54,4
		c3.11,1.15,4.7,4.59,3.56,7.7c-1.14,3.11-4.59,4.7-7.7,3.56c-5.88-2.16-12.07-3.26-18.4-3.26C35.88,61.36,12,85.24,12,114.6
		c0,29.35,23.88,53.23,53.23,53.23s53.23-23.88,53.23-53.23c0-14.73-6.19-28.94-16.98-38.98c-2.43-2.26-2.56-6.05-0.31-8.48
		c2.26-2.43,6.05-2.56,8.48-0.31c13.22,12.3,20.81,29.71,20.81,47.77C130.47,150.57,101.2,179.83,65.23,179.83z"/>
</g>
<g>
	<path d="M247.74,179.83c-35.97,0-65.23-29.26-65.23-65.23c0-20.07,9.04-38.74,24.81-51.2c2.6-2.05,6.37-1.61,8.43,0.99
		c2.05,2.6,1.61,6.37-0.99,8.43c-12.87,10.17-20.25,25.4-20.25,41.79c0,29.35,23.88,53.23,53.23,53.23s53.23-23.88,53.23-53.23
		c0-29.35-23.88-53.23-53.23-53.23c-5.67,0-11.26,0.89-16.59,2.63c-3.15,1.03-6.54-0.68-7.57-3.83c-1.03-3.15,0.68-6.54,3.83-7.57
		c6.54-2.14,13.38-3.23,20.33-3.23c35.97,0,65.23,29.26,65.23,65.23C312.97,150.57,283.71,179.83,247.74,179.83z"/>
</g>
<g>
	<path class="st0" d="M57.4,20.64"/>
</g>
<g>
	<path d="M124.47,118.89H65.23c-2.41,0-4.58-1.44-5.52-3.66c-0.94-2.22-0.46-4.78,1.21-6.51l58.13-60.05L99.94,26.64H55.36
		c-3.31,0-6-2.69-6-6s2.69-6,6-6h47.32c1.74,0,3.39,0.75,4.53,2.07l24.51,28.26c2.04,2.35,1.94,5.87-0.22,8.1l-52.11,53.83h45.07
		c3.31,0,6,2.69,6,6S127.78,118.89,124.47,118.89z"/>
</g>
<g>
	<path d="M148.3,158.39c-0.57,0-1.16-0.08-1.74-0.26c-3.17-0.96-4.97-4.3-4.01-7.48l11.91-39.49c0.76-2.53,3.1-4.27,5.74-4.27h72.69
		L159.18,9.62c-1.38-1.82-1.61-4.25-0.59-6.29c1.01-2.04,3.1-3.33,5.37-3.33H230c1.48,0,2.9,0.54,4,1.53
		c7.7,6.89,11.25,14.12,10.54,21.48c-1.02,10.56-10.4,16.44-11.46,17.08c-0.93,0.55-1.99,0.85-3.07,0.85h-19.4c-3.31,0-6-2.69-6-6
		s2.69-6,6-6h17.47c1.57-1.28,4.24-3.9,4.53-7.12c0.31-3.48-2.26-7.05-4.99-9.81h-51.58l73.73,97.27c1.38,1.82,1.61,4.25,0.59,6.29
		s-3.09,3.33-5.37,3.33h-80.31l-10.63,35.22C153.26,156.71,150.88,158.38,148.3,158.39z"/>
</g>
<g>
	<path d="M160.26,207.94c-8.66,0-16.46-1.52-23.05-3.58c-20.36-6.36-33.4-18.91-33.95-19.44c-2.37-2.31-2.42-6.11-0.11-8.48
		c2.31-2.37,6.11-2.42,8.48-0.11c1.85,1.79,46.12,43.5,96.38-0.23c2.5-2.18,6.29-1.91,8.46,0.59c2.17,2.5,1.91,6.29-0.59,8.46
		C195.9,202.54,176.56,207.94,160.26,207.94z"/>
</g>
</svg>
